<?xml version="1.0" standalone="no"?>
<!DOCTYPE svg PUBLIC "-//W3C//DTD SVG 20010904//EN"
 "http://www.w3.org/TR/2001/REC-SVG-20010904/DTD/svg10.dtd">
<svg version="1.0" xmlns="http://www.w3.org/2000/svg"
 width="800.000000pt" height="800.000000pt" viewBox="0 0 800.000000 800.000000"
 preserveAspectRatio="xMidYMid meet">
<metadata>
Created by potrace 1.14, written by Peter Selinger 2001-2017
</metadata>
<g transform="translate(0.000000,800.000000) scale(0.100000,-0.100000)"
fill="#000000" stroke="none">
<path d="M0 4000 l0 -3000 4000 0 4000 0 0 3000 0 3000 -4000 0 -4000 0 0
-3000z m5950 2260 c0 -7 6 -7 19 0 11 6 87 10 175 10 l156 0 0 -634 c0 -551
-2 -635 -15 -646 -19 -16 -19 -60 0 -96 13 -25 15 -153 15 -956 0 -732 -3
-927 -13 -931 -9 -4 -9 -8 1 -15 11 -8 13 -76 11 -363 -1 -195 -6 -362 -11
-372 -14 -28 -28 -9 -23 31 l5 37 -15 -38 c-16 -43 -8 -79 25 -99 19 -12 20
-23 20 -195 l0 -183 -2145 0 -2145 0 0 2230 0 2230 1970 0 c1351 0 1970 -3
1970 -10z"/>
<path d="M5850 6120 c-13 -8 -13 -10 2 -10 9 0 20 5 23 10 8 13 -5 13 -25 0z"/>
<path d="M5780 6090 c0 -5 7 -10 15 -10 8 0 15 5 15 10 0 6 -7 10 -15 10 -8 0
-15 -4 -15 -10z"/>
<path d="M6000 6060 c-12 -8 -10 -10 8 -10 13 0 20 4 17 10 -7 12 -6 12 -25 0z"/>
<path d="M5793 6053 c-7 -3 -13 -11 -13 -20 0 -12 2 -12 16 2 18 17 16 25 -3
18z"/>
<path d="M5880 6040 c-9 -6 -10 -10 -3 -10 6 0 15 5 18 10 8 12 4 12 -15 0z"/>
<path d="M5800 6014 c0 -2 10 -8 21 -15 17 -8 20 -8 17 2 -4 11 -38 23 -38 13z"/>
<path d="M5990 6003 c0 -17 15 -16 30 1 9 12 8 15 -9 13 -12 -1 -21 -7 -21
-14z"/>
<path d="M5890 6001 l-25 -7 28 -6 c35 -7 69 1 61 13 -6 10 -28 10 -64 0z"/>
<path d="M5800 5976 c0 -13 12 -16 58 -15 l57 2 -45 6 c-25 4 -51 10 -57 14
-9 5 -13 3 -13 -7z"/>
<path d="M4139 5880 c-53 -4 -112 -12 -130 -18 -19 -6 -51 -13 -73 -17 -166
-28 -478 -166 -631 -280 -38 -28 -90 -66 -114 -83 -67 -48 -197 -176 -227
-224 -14 -24 -52 -70 -84 -103 -57 -59 -159 -222 -219 -348 -40 -86 -91 -235
-91 -268 0 -14 -9 -52 -21 -85 -78 -217 -80 -609 -5 -869 8 -27 24 -84 36
-125 12 -41 32 -95 46 -120 13 -25 35 -70 49 -100 40 -89 122 -230 182 -308
49 -67 79 -102 178 -213 45 -50 245 -215 306 -253 149 -90 202 -119 290 -154
112 -46 200 -73 374 -115 154 -38 430 -46 620 -18 183 26 527 143 635 215 19
13 67 42 107 65 83 48 191 138 312 261 84 86 171 186 171 198 0 4 12 21 26 37
48 55 80 109 151 251 42 83 67 146 62 151 -8 8 27 107 63 180 6 11 11 38 12
60 2 21 5 45 9 53 35 80 37 102 34 369 -2 146 -7 277 -10 291 -4 14 -10 39
-12 55 -3 17 -8 38 -11 47 -3 9 -7 25 -9 35 -5 25 -61 214 -69 234 -4 10 -2
20 4 24 7 4 8 11 1 18 -5 7 -34 62 -65 122 -54 108 -84 153 -216 331 -122 165
-247 282 -451 422 -26 17 -93 54 -150 82 -57 28 -120 59 -139 70 -41 21 -158
61 -249 84 -66 17 -247 21 -300 7 -30 -8 -61 -4 -61 9 0 5 17 12 38 17 l37 7
-30 7 c-39 9 -254 8 -376 -1z"/>
<path d="M6197 2973 c-10 -10 -8 -53 2 -53 5 0 8 14 7 30 0 17 -1 30 -2 30 0
0 -4 -3 -7 -7z"/>
<path d="M6231 2964 c0 -11 3 -14 6 -6 3 7 2 16 -1 19 -3 4 -6 -2 -5 -13z"/>
<path d="M6241 2794 c0 -11 3 -14 6 -6 3 7 2 16 -1 19 -3 4 -6 -2 -5 -13z"/>
<path d="M6241 2754 c0 -11 3 -14 6 -6 3 7 2 16 -1 19 -3 4 -6 -2 -5 -13z"/>
<path d="M6263 2615 c0 -22 2 -30 4 -17 2 12 2 30 0 40 -3 9 -5 -1 -4 -23z"/>
</g>
</svg>
